<svg version="1.2" xmlns="http://www.w3.org/2000/svg" viewBox="0 0 2200 2200" width="2200" height="2200"><style>.a{fill:#153e49}</style><path fill-rule="evenodd" class="a" d="m2197.9 535.3l-153.1 837.6c-11.1 60.2-63.5 104-124.8 104h-1301.9v101.4c0 41 33.3 74.3 74.2 74.3h1297.5c22.5 0 40.7 18.2 40.7 40.7 0 22.5-18.2 40.7-40.7 40.7h-1297.5c-85.8 0-155.6-69.8-155.6-155.7v-138.5l-182.1-1005.5q-0.1-0.7-0.3-1.4l-64.8-358.3h-248.8c-22.5 0-40.7-18.3-40.7-40.7 0-22.5 18.2-40.7 40.7-40.7h282.8c19.7 0 36.5 14 40 33.4l65 359h1644.6c37.8 0 73.3 16.6 97.5 45.6 24.1 29 34.1 66.9 27.3 104.1zm-1211.2 654.5l-71.5-528c-3-22.3-23.5-37.9-45.8-34.9-22.2 3-37.8 23.5-34.8 45.8l71.4 528c2.7 20.4 20.2 35.3 40.3 35.3q2.7 0 5.5-0.4c22.3-3 37.9-23.5 34.9-45.8zm337.6-522.6c0-22.5-18.2-40.7-40.7-40.7-22.5 0-40.7 18.2-40.7 40.7v528.1c0 22.4 18.2 40.7 40.7 40.7 22.5 0 40.7-18.3 40.7-40.7zm373.4-40.4c-22.2-3-42.7 12.6-45.7 34.9l-71.4 528c-3.1 22.3 12.6 42.8 34.8 45.8q2.8 0.4 5.5 0.4c20.1 0 37.6-14.8 40.3-35.3l71.4-528c3.1-22.3-12.6-42.8-34.9-45.8zm-861.3 1573.1c-95.7 0-173.1-77.4-173.1-173.1 0-95.7 77.4-173.1 173.1-173.1 95.7 0 173.1 77.4 173.1 173.1 0 95.7-77.4 173.1-173.1 173.1zm941.5 0c-95.8 0-173.1-77.4-173.1-173.1 0-95.7 77.3-173.1 173.1-173.1 95.7 0 173.1 77.4 173.1 173.1 0 95.7-77.4 173.1-173.1 173.1z"/></svg>